Coordinates
version=1
nRows=8
nColumns=40
inDegrees=yes

Units are S.I. units (second, meters, Newtons, ...)
If the header above contains a line with 'inDegrees', this indicates whether rotational values are in degrees (yes) or radians (no).

endheader
time	pelvis_tilt	pelvis_list	pelvis_rotation	pelvis_tx	pelvis_ty	pelvis_tz	hip_flexion_r	hip_adduction_r	hip_rotation_r	knee_angle_r	knee_angle_r_beta	ankle_angle_r	subtalar_angle_r	mtp_angle_r	hip_flexion_l	hip_adduction_l	hip_rotation_l	knee_angle_l	knee_angle_l_beta	ankle_angle_l	subtalar_angle_l	mtp_angle_l	lumbar_extension	lumbar_bending	lumbar_rotation	arm_flex_r	arm_add_r	arm_rot_r	elbow_flex_r	pro_sup_r	wrist_flex_r	wrist_dev_r	arm_flex_l	arm_add_l	arm_rot_l	elbow_flex_l	pro_sup_l	wrist_flex_l	wrist_dev_l
      3.55000000	    -30.20940064	     -0.34387005	      4.51868370	     -0.38564506	      0.79699388	     -0.74395021	     71.23018347	     -1.74321167	     -8.59141769	     72.40407797	      1.26368955	     19.23058644	      0.00000000	      0.00000000	     35.90456762	     -3.75478332	      4.45166255	     89.80048025	      1.56731405	     -7.64970974	      0.00000000	      0.00000000	     -1.53876257	      3.13052808	     -3.98531025	     89.94766678	     -5.49083489	     12.94942804	     48.05860494	     71.61216326	      0.00000000	      0.00000000	     89.91183232	     -5.25932960	     13.21433141	     43.36600111	     73.41362231	      0.00000000	      0.00000000
      3.55500000	    -30.36574743	     -0.47630414	      4.59162447	     -0.38597984	      0.79620761	     -0.74406149	     71.46083435	     -1.72733973	     -8.66667490	     72.48351658	      1.26507602	     19.32658099	      0.00000000	      0.00000000	     36.13455709	     -3.78826959	      4.66010519	     89.88840342	      1.56884860	     -7.85937245	      0.00000000	      0.00000000	     -1.43867400	      3.27452667	     -4.03892436	     89.94815940	     -5.50731136	     12.40455631	     48.12818269	     75.87601322	      0.00000000	      0.00000000	     89.91280044	     -5.37969303	     13.06338389	     43.53345066	     77.88776884	      0.00000000	      0.00000000
      3.56000000	    -30.48405248	     -0.45845820	      4.53503735	     -0.38604811	      0.79526668	     -0.74413103	     71.68406818	     -1.67456430	     -8.59629393	     72.65566019	      1.26808049	     19.43855181	      0.00000000	      0.00000000	     36.21577078	     -3.77584437	      4.62863141	     89.92798298	      1.56953939	     -7.87470192	      0.00000000	      0.00000000	     -1.35401954	      3.25531473	     -3.99722419	     89.94858212	     -5.51409740	     12.35780929	     48.23319122	     75.39624698	      0.00000000	      0.00000000	     89.91339793	     -5.36796841	     13.02617650	     43.62422119	     77.61863777	      0.00000000	      0.00000000
      3.56500000	    -30.68279410	     -0.52401109	      4.48708528	     -0.38611361	      0.79424696	     -0.74411880	     71.95637731	     -1.59124730	     -8.61420347	     72.76773896	      1.27003663	     19.62790672	      0.00000000	      0.00000000	     36.43374974	     -3.83297617	      4.66362169	     89.99710682	      1.57074583	     -8.01972633	      0.00000000	      0.00000000	     -1.17514646	      3.30459714	     -3.90574041	     89.94872248	     -5.71799521	     13.41350566	     48.67930395	     66.74546379	      0.00000000	      0.00000000	     89.91443534	     -5.33519894	     13.93840207	     43.99080975	     68.38757552	      0.00000000	      0.00000000
      3.57000000	    -30.70615479	     -0.47124599	      4.50698493	     -0.38613712	      0.79345005	     -0.74424034	     72.07926840	     -1.63288038	     -8.56380303	     72.96027553	      1.27339703	     19.65021072	      0.00000000	      0.00000000	     36.39561013	     -3.71039818	      4.72518866	     90.01459548	      1.57105107	     -7.85993245	      0.00000000	      0.00000000	     -1.20216459	      3.25159068	     -3.94769943	     89.94911532	     -5.63325892	     12.27277594	     48.44872118	     75.60166006	      0.00000000	      0.00000000	     89.91557542	     -5.24950732	     12.71658147	     43.79117892	     77.77680364	      0.00000000	      0.00000000
      3.57500000	    -30.77764547	     -0.48073832	      4.49250171	     -0.38635188	      0.79252330	     -0.74431630	     72.26496634	     -1.61091771	     -8.54210397	     73.14430203	      1.27660890	     19.76857630	      0.00000000	      0.00000000	     36.45899622	     -3.69081280	      4.76665980	     90.08563149	      1.57229088	     -7.85121553	      0.00000000	      0.00000000	     -1.17683183	      3.28750124	     -4.04960872	     89.94950628	     -5.47770007	     11.93280212	     48.56236691	     76.04695059	      0.00000000	      0.00000000	     89.91615522	     -5.37030302	     12.55181205	     43.96447270	     77.89249377	      0.00000000	      0.00000000
      3.58000000	    -30.87659161	     -0.45201736	      4.52681197	     -0.38646792	      0.79172634	     -0.74440846	     72.44277285	     -1.63604013	     -8.47664323	     73.28830450	      1.27912222	     19.92910326	      0.00000000	      0.00000000	     36.52545039	     -3.61163923	      4.80565571	     90.10027659	      1.57254648	     -7.83086546	      0.00000000	      0.00000000	     -1.14118913	      3.23262573	     -4.04976655	     89.94957904	     -5.55739196	     12.35318372	     48.89823676	     70.38096601	      0.00000000	      0.00000000	     89.91734902	     -5.17849514	     12.72597534	     44.11735051	     72.09075539	      0.00000000	      0.00000000
      3.58500000	    -30.98003408	     -0.51465995	      4.54362647	     -0.38673726	      0.79090919	     -0.74444333	     72.63800709	     -1.61806615	     -8.50902132	     73.40889869	      1.28122698	     19.95493801	      0.00000000	      0.00000000	     36.65881029	     -3.61506544	      4.92771822	     90.16570547	      1.57368843	     -7.93295502	      0.00000000	      0.00000000	     -1.08255446	      3.31096584	     -4.10648632	     89.95014989	     -5.49192332	     11.75581554	     48.85478343	     75.70698658	      0.00000000	      0.00000000	     89.91814136	     -5.32680212	     12.36730377	     44.22003745	     77.73193693	      0.00000000	      0.00000000
